<svg width="40" height="40" viewBox="0 0 40 40" fill="none" xmlns="http://www.w3.org/2000/svg">
<rect width="40" height="40" fill="#E5E5E5"/>
<g clip-path="url(#clip0_0_1)">
<rect x="-108" y="-103" width="1440" height="2536" fill="white"/>
<g opacity="0.6" filter="url(#filter0_d_0_1)">
<path d="M-108 -103H1332V-60C1332 -37.9086 1314.09 -20 1292 -20H-68C-90.0914 -20 -108 -37.9086 -108 -60V-103Z" fill="white"/>
</g>
<g opacity="0.1">
<circle cx="20" cy="20" r="20" fill="#0064D2"/>
</g>
<path fill-rule="evenodd" clip-rule="evenodd" d="M28 20C28 20.5523 27.5523 21 27 21L13 21C12.4477 21 12 20.5523 12 20C12 19.4477 12.4477 19 13 19L27 19C27.5523 19 28 19.4477 28 20Z" fill="#0064D2"/>
<path fill-rule="evenodd" clip-rule="evenodd" d="M20.7071 27.7071C20.3166 28.0976 19.6834 28.0976 19.2929 27.7071L12.2929 20.7071C11.9024 20.3166 11.9024 19.6834 12.2929 19.2929L19.2929 12.2929C19.6834 11.9024 20.3166 11.9024 20.7071 12.2929C21.0976 12.6834 21.0976 13.3166 20.7071 13.7071L14.4142 20L20.7071 26.2929C21.0976 26.6834 21.0976 27.3166 20.7071 27.7071Z" fill="#0064D2"/>
</g>
<defs>
<filter id="filter0_d_0_1" x="-138" y="-133" width="1500" height="143" filterUnits="userSpaceOnUse" color-interpolation-filters="sRGB">
<feFlood flood-opacity="0" result="BackgroundImageFix"/>
<feColorMatrix in="SourceAlpha" type="matrix" values="0 0 0 0 0 0 0 0 0 0 0 0 0 0 0 0 0 0 127 0" result="hardAlpha"/>
<feOffset/>
<feGaussianBlur stdDeviation="15"/>
<feComposite in2="hardAlpha" operator="out"/>
<feColorMatrix type="matrix" values="0 0 0 0 0 0 0 0 0 0 0 0 0 0 0 0 0 0 0.12 0"/>
<feBlend mode="normal" in2="BackgroundImageFix" result="effect1_dropShadow_0_1"/>
<feBlend mode="normal" in="SourceGraphic" in2="effect1_dropShadow_0_1" result="shape"/>
</filter>
<clipPath id="clip0_0_1">
<rect x="-108" y="-103" width="1440" height="2536" fill="white"/>
</clipPath>
</defs>
</svg>
